# xmcd CD database file
#
# Track frame offsets:
#	150
#	2785
#	30520
#	55355
#	61225
#	88797
#	118150
#	129152
#	157885
#
# Disc length: 2500 seconds
#
# Revision: 5
# Processed by: cddbd v1.5.2PL0 Copyright (c) Steve Scherf et al.
# Submitted via: CDex 1.79
#
DISCID=6a09c209
DTITLE=Jean Michel Jarre - Hong Kong (2 of 2)
DYEAR=1994
DGENRE=Electronique
TTITLE0=Hong Kong Hostess
TTITLE1=Jonques De Pecheurs Au Crepuscule 1
TTITLE2=Jonques De Pecheurs Au Crepuscule 2
TTITLE3=Sale Of The Century
TTITLE4=Digi Sequencer
TTITLE5=Chants Magnetiques 2
TTITLE6=Band In The Rain (Unplugged Version)
TTITLE7=Rendez-Vous 4
TTITLE8=Chronologie 4
EXTD=YEAR: 1994
EXTT0=
EXTT1=
EXTT2=
EXTT3=
EXTT4=
EXTT5=
EXTT6=
EXTT7=
EXTT8=
PLAYORDER=
